<svg width="12" height="15" viewBox="0 0 12 15" fill="none" xmlns="http://www.w3.org/2000/svg">
<path d="M5.9299 3.65252C6.56878 3.65252 7.36963 3.20733 7.84654 2.61374C8.27846 2.07581 8.5934 1.32455 8.5934 0.573285C8.5934 0.471262 8.5844 0.36924 8.56641 0.285767C7.85554 0.313591 7.0007 0.777331 6.48779 1.39874C6.08287 1.87176 5.71394 2.61375 5.71394 3.37428C5.71394 3.48558 5.73193 3.59688 5.74093 3.63398C5.78592 3.64325 5.85791 3.65252 5.9299 3.65252ZM3.68032 14.8751C4.55315 14.8751 4.94008 14.2722 6.02888 14.2722C7.13567 14.2722 7.37863 14.8565 8.35045 14.8565C9.30427 14.8565 9.94315 13.9476 10.546 13.0572C11.2209 12.037 11.4999 11.0353 11.5179 10.9889C11.4549 10.9704 9.62821 10.2005 9.62821 8.03951C9.62821 6.166 11.0679 5.32199 11.1489 5.25707C10.1951 3.8473 8.74637 3.8102 8.35045 3.8102C7.27965 3.8102 6.40681 4.47798 5.85791 4.47798C5.26402 4.47798 4.48117 3.8473 3.55434 3.8473C1.79067 3.8473 0 5.34981 0 8.18791C0 9.95012 0.665876 11.8144 1.48472 13.0201C2.18659 14.0403 2.79848 14.8751 3.68032 14.8751Z" fill="white"/>
</svg>
