<svg width="17" height="20" viewBox="0 0 17 20" fill="none" xmlns="http://www.w3.org/2000/svg">
<path d="M3.78027 19.2432H15.25C15.7686 19.2432 16.1465 18.8564 16.1465 18.3467C16.1465 17.8896 15.8389 17.5908 15.4697 17.4062C14.415 16.8965 14.2041 15.3672 15.3203 14.3477C15.8213 13.917 16.1377 13.4775 16.1377 12.5811V3.0625C16.1377 1.12012 15.1094 0.0830078 13.1846 0.0830078H3.79785C1.86426 0.0830078 0.844727 1.11133 0.844727 3.0625V16.29C0.844727 18.2148 1.87305 19.2432 3.78027 19.2432ZM3.70996 13.1963C3.41113 13.1963 3.15625 12.9502 3.15625 12.6426V2.19238C3.15625 1.88477 3.41113 1.63867 3.70996 1.63867C4.00879 1.63867 4.26367 1.88477 4.26367 2.19238V12.6426C4.26367 12.9502 4.00879 13.1963 3.70996 13.1963ZM4.10547 17.4502C3.13867 17.4502 2.64648 16.8789 2.64648 16.0527C2.64648 15.2617 3.20898 14.6729 4.16699 14.6729H12.7891C12.877 14.6729 12.9648 14.6641 13.0439 14.6465C12.6045 15.5869 12.6396 16.624 13.1055 17.4502H4.10547Z" fill="#3C3C43" fill-opacity="0.6"/>
</svg>
